<svg width="33" height="8" viewBox="0 0 33 8" fill="none" xmlns="http://www.w3.org/2000/svg">
<path fill-rule="evenodd" clip-rule="evenodd" d="M1 -4.37114e-08C0.734783 -3.21184e-08 0.480429 0.105356 0.292893 0.292892C0.105357 0.480428 -3.17573e-07 0.734783 -3.0598e-07 1C-2.94387e-07 1.26522 0.105357 1.51957 0.292893 1.70711C0.48043 1.89464 0.734783 2 1 2L32 2C32.2652 2 32.5196 1.89464 32.7071 1.70711C32.8946 1.51957 33 1.26521 33 0.999999C33 0.734782 32.8946 0.480427 32.7071 0.292891C32.5196 0.105355 32.2652 -1.41036e-06 32 -1.39876e-06L1 -4.37114e-08ZM14 7C14 6.73478 14.1054 6.48043 14.2929 6.29289C14.4804 6.10536 14.7348 6 15 6L32 6C32.2652 6 32.5196 6.10536 32.7071 6.29289C32.8946 6.48043 33 6.73478 33 7C33 7.26522 32.8946 7.51957 32.7071 7.70711C32.5196 7.89464 32.2652 8 32 8L15 8C14.7348 8 14.4804 7.89464 14.2929 7.70711C14.1054 7.51957 14 7.26522 14 7Z" fill="black"/>
</svg>
