<svg width="100" height="31" viewBox="0 0 100 31" fill="none" xmlns="http://www.w3.org/2000/svg">
<g opacity="0.5">
<g opacity="0.89">
<path d="M15.4023 2.36719C8.12658 2.36719 2.22656 8.28166 2.22656 15.5752C2.22656 22.8688 8.12658 28.7832 15.4023 28.7832C22.678 28.7832 28.578 22.8688 28.578 15.5752C28.578 8.28166 22.678 2.36719 15.4023 2.36719ZM15.4701 21.6256C12.1374 21.6256 9.43447 18.9161 9.43447 15.5752C9.43447 12.2344 12.1374 9.52477 15.4701 9.52477C18.8028 9.52477 21.5058 12.2344 21.5058 15.5752C21.5058 18.9161 18.8028 21.6256 15.4701 21.6256Z" fill="url(#paint0_linear_16551_8685)"/>
</g>
<g opacity="0.89">
<path d="M18.9879 5.99219C13.7079 5.99219 9.42578 10.2848 9.42578 15.5777C9.42578 12.2369 12.1287 9.52728 15.4614 9.52728C18.7941 9.52728 21.4971 12.2369 21.4971 15.5777C21.4971 18.9186 18.7941 21.6282 15.4614 21.6282C12.1287 21.6282 9.42578 18.9186 9.42578 15.5777C9.42578 20.8706 13.7079 25.1632 18.9879 25.1632C24.2679 25.1632 28.55 20.8706 28.55 15.5777C28.55 10.2848 24.2679 5.99219 18.9879 5.99219Z" fill="url(#paint1_linear_16551_8685)"/>
</g>
<path d="M37.321 10.4097H34.4533L33.9011 12.6337H31.3047L33.8623 3.94165C33.9108 3.7377 34.0173 3.58232 34.1627 3.46577C34.3274 3.33952 34.5017 3.28125 34.7149 3.28125H37.0691C37.2822 3.28125 37.4566 3.33952 37.6213 3.46577C37.786 3.59203 37.8829 3.75713 37.9313 3.94165L40.4696 12.6337H37.8732L37.321 10.4097ZM36.8462 8.56446L36.2456 6.16565C36.1487 5.69948 36.0809 5.37899 36.0712 5.18476H35.7127C35.6546 5.52467 35.5868 5.85487 35.5287 6.16565L34.928 8.56446H36.8462Z" fill="#73BFE4"/>
<path d="M49.0717 12.6387H46.4075L45.739 9.81262C45.6809 9.54069 45.5743 9.35616 45.4484 9.25905C45.3224 9.16193 45.119 9.10366 44.8574 9.10366H43.7045V12.629H41.1953V3.27659C42.0866 3.18918 43.3364 3.14062 44.964 3.14062C46.3009 3.14062 47.2697 3.34457 47.8316 3.75247C48.3935 4.17007 48.6842 4.89846 48.6842 5.94733C48.6842 7.31669 48.0738 8.08392 46.8434 8.21017V8.28787C47.6282 8.41412 48.1126 8.89 48.2676 9.7155L49.0717 12.6387ZM43.7142 7.25842H44.9252C45.3999 7.25842 45.7293 7.18073 45.894 7.03505C46.0587 6.87966 46.1459 6.57859 46.1459 6.14156C46.1459 5.70453 46.0587 5.40347 45.894 5.24808C45.7293 5.09269 45.4096 5.02471 44.9252 5.02471H43.7142V7.25842Z" fill="#73BFE4"/>
<path d="M57.3683 5.24493H54.675V12.6453H52.1367V5.24493H49.4531V3.27344H57.3683V5.24493Z" fill="#73BFE4"/>
<path d="M64.5255 9.30359L62.6557 8.5655C61.9291 8.26443 61.406 7.89538 61.1056 7.47778C60.8053 7.05046 60.6406 6.48718 60.6406 5.79764C60.6406 4.73906 60.9022 4.03981 61.4447 3.67076C61.9679 3.31142 62.927 3.11719 64.293 3.11719C65.5912 3.11719 66.686 3.25315 67.5385 3.53479L67.3738 5.20522C65.785 5.17608 64.7387 5.16637 64.264 5.16637C63.828 5.16637 63.5373 5.20522 63.3823 5.28291C63.2273 5.36061 63.1595 5.50629 63.1595 5.75879C63.1595 5.97245 63.2176 6.11813 63.3436 6.23467C63.4695 6.35121 63.702 6.45804 64.0411 6.58429L65.7559 7.25441C66.5116 7.55547 67.0347 7.92452 67.3351 8.34213C67.6354 8.77916 67.8001 9.34244 67.8001 10.0514C67.8001 11.11 67.5385 11.8384 67.0154 12.2365C66.4922 12.6347 65.5331 12.8387 64.1574 12.8387C62.9658 12.8387 61.8323 12.7027 60.7375 12.4405L60.8925 10.6341C62.7429 10.6827 63.828 10.6924 64.1477 10.6924C64.603 10.6924 64.9034 10.6535 65.0487 10.5758C65.2037 10.4981 65.2715 10.333 65.2715 10.1097C65.2715 9.89601 65.2231 9.73091 65.1165 9.63379C65.0099 9.51725 64.8065 9.40071 64.5255 9.30359Z" fill="#171717"/>
<path d="M71.5775 12.6356H69.0586V3.27344H71.5775V12.6356Z" fill="#171717"/>
<path d="M80.5011 5.24493H77.8078V12.6453H75.2695V5.24493H72.5859V3.27344H80.5011V5.24493Z" fill="#171717"/>
<path d="M88.0682 10.693L88.1941 12.5285C87.3028 12.6257 85.7624 12.6839 83.5729 12.6839C82.9335 12.6839 82.4201 12.4994 82.0325 12.1304C81.645 11.771 81.4609 11.2757 81.4609 10.6736V5.24471C81.4609 4.64258 81.6644 4.15699 82.0519 3.78795C82.4394 3.42861 82.9529 3.23438 83.5923 3.23438C85.8012 3.23438 87.3416 3.28293 88.2135 3.38976L88.0876 5.22529H84.5805C84.193 5.22529 84.0089 5.40981 84.0089 5.79828V6.94427H87.5838V8.69239H83.9992V10.1103C83.9992 10.4988 84.1833 10.6833 84.5708 10.6833H88.0682V10.693Z" fill="#171717"/>
<path d="M93.006 9.30359L91.1362 8.5655C90.4096 8.26443 89.8864 7.89538 89.5861 7.47778C89.2858 7.05046 89.1211 6.48718 89.1211 5.79764C89.1211 4.73906 89.3827 4.03981 89.9252 3.67076C90.4484 3.31142 91.4075 3.11719 92.7735 3.11719C94.0717 3.11719 95.1664 3.25315 96.019 3.53479L95.8543 5.20522C94.2654 5.17608 93.2191 5.16637 92.7444 5.16637C92.3085 5.16637 92.0178 5.20522 91.8628 5.28291C91.7078 5.36061 91.64 5.50629 91.64 5.75879C91.64 5.97245 91.6981 6.11813 91.8241 6.23467C91.95 6.35121 92.1825 6.45804 92.5216 6.58429L94.2364 7.25441C94.992 7.55547 95.5152 7.92452 95.8155 8.34213C96.1159 8.77916 96.2806 9.34244 96.2806 10.0514C96.2806 11.11 96.019 11.8384 95.4958 12.2365C94.9727 12.6347 94.0136 12.8387 92.6379 12.8387C91.4462 12.8387 90.3127 12.7027 89.218 12.4405L89.373 10.6341C91.2234 10.6827 92.3085 10.6924 92.6282 10.6924C93.0835 10.6924 93.3838 10.6535 93.5292 10.5758C93.6842 10.4981 93.752 10.333 93.752 10.1097C93.752 9.89601 93.7035 9.73091 93.597 9.63379C93.4807 9.51725 93.2966 9.40071 93.006 9.30359Z" fill="#171717"/>
<path d="M31.7969 20.1122V17.1404H31.3125V16.6645H31.7969V16.5091C31.7969 16.0235 31.9035 15.5865 32.1941 15.3049C32.4266 15.0815 32.7366 14.9844 33.037 14.9844C33.2598 14.9844 33.4536 15.0329 33.5698 15.0815L33.4826 15.5671C33.3857 15.5282 33.2598 15.4894 33.0854 15.4894C32.5526 15.4894 32.4169 15.9556 32.4169 16.4897V16.6742H33.2501V17.1501H32.4169V20.1219H31.7969V20.1122Z" fill="#171717"/>
<path d="M36.68 19.1775C36.68 19.5369 36.6897 19.8476 36.7091 20.1196H36.1569L36.1181 19.5563H36.1084C35.9437 19.8379 35.5853 20.1973 34.9749 20.1973C34.4324 20.1973 33.793 19.8962 33.793 18.6919V16.6816H34.4227V18.5851C34.4227 19.2358 34.6261 19.6825 35.188 19.6825C35.6046 19.6825 35.8953 19.3912 36.0115 19.1095C36.0503 19.0124 36.0697 18.9056 36.0697 18.789V16.6719H36.6994V19.1775H36.68Z" fill="#171717"/>
<path d="M37.7188 15.0625H38.3485V20.1223H37.7188V15.0625Z" fill="#171717"/>
<path d="M39.3906 15.0625H40.0203V20.1223H39.3906V15.0625Z" fill="#171717"/>
<path d="M42.4908 19.4684C42.6749 19.585 43.0043 19.7209 43.3143 19.7209C43.7696 19.7209 43.9828 19.4976 43.9828 19.2062C43.9828 18.9052 43.8084 18.7401 43.3433 18.575C42.7233 18.3516 42.4327 18.0117 42.4327 17.6038C42.4327 17.0502 42.8783 16.5938 43.6146 16.5938C43.9634 16.5938 44.2637 16.6909 44.4575 16.8074L44.3025 17.2639C44.1668 17.1765 43.9149 17.0599 43.5952 17.0599C43.2271 17.0599 43.0236 17.2736 43.0236 17.5261C43.0236 17.8077 43.2271 17.9437 43.6727 18.1088C44.2734 18.3322 44.5737 18.6332 44.5737 19.1479C44.5737 19.7501 44.1087 20.1774 43.2852 20.1774C42.9074 20.1774 42.5586 20.0803 42.3164 19.9443L42.4908 19.4684Z" fill="#171717"/>
<path d="M45.7394 18.507C45.7491 19.3519 46.2916 19.7015 46.9213 19.7015C47.367 19.7015 47.6383 19.6238 47.8708 19.5267L47.9773 19.9734C47.7545 20.0706 47.3767 20.1871 46.8342 20.1871C45.7782 20.1871 45.1484 19.4879 45.1484 18.4487C45.1484 17.4095 45.7588 16.5938 46.7567 16.5938C47.8805 16.5938 48.1808 17.5844 48.1808 18.2156C48.1808 18.3419 48.1711 18.439 48.1614 18.507H45.7394ZM47.5704 18.0505C47.5801 17.6523 47.4058 17.0308 46.7082 17.0308C46.0785 17.0308 45.7975 17.6135 45.7491 18.0505H47.5704Z" fill="#171717"/>
<path d="M48.9431 17.7416C48.9431 17.3337 48.9334 16.9841 48.9141 16.6636H49.4566L49.476 17.3435H49.505C49.66 16.8773 50.0379 16.5859 50.4545 16.5859C50.5223 16.5859 50.5707 16.5956 50.6288 16.6054V17.1978C50.561 17.1881 50.5029 17.1784 50.4157 17.1784C49.9798 17.1784 49.66 17.5086 49.5729 17.9844C49.5632 18.0718 49.5438 18.169 49.5438 18.2758V20.1113H48.9238V17.7416H48.9431Z" fill="#171717"/>
<path d="M51.6841 16.6719L52.3623 18.6045C52.4785 18.9153 52.5657 19.2066 52.6432 19.4883H52.6626C52.7401 19.2066 52.837 18.9153 52.9532 18.6045L53.6217 16.6719H54.2708L52.9242 20.1196H52.3235L51.0156 16.6719H51.6841Z" fill="#171717"/>
<path d="M55.5641 15.7014C55.5738 15.915 55.4188 16.0898 55.1669 16.0898C54.9441 16.0898 54.7891 15.915 54.7891 15.7014C54.7891 15.478 54.9538 15.3129 55.1766 15.3129C55.4091 15.3032 55.5641 15.478 55.5641 15.7014ZM54.8666 20.1105V16.6628H55.4963V20.1105H54.8666Z" fill="#171717"/>
<path d="M58.9725 19.9891C58.8078 20.0765 58.4493 20.193 57.9843 20.193C56.9477 20.193 56.2695 19.4841 56.2695 18.4352C56.2695 17.3766 56.9961 16.6094 58.12 16.6094C58.4881 16.6094 58.8175 16.7065 58.9822 16.7842L58.8369 17.2698C58.6915 17.1824 58.4493 17.1047 58.1103 17.1047C57.3255 17.1047 56.8993 17.6874 56.8993 18.4061C56.8993 19.2024 57.4127 19.6977 58.0909 19.6977C58.4493 19.6977 58.6819 19.6006 58.8562 19.5229L58.9725 19.9891Z" fill="#171717"/>
<path d="M60.0089 18.507C60.0186 19.3519 60.5612 19.7015 61.1909 19.7015C61.6365 19.7015 61.9078 19.6238 62.1403 19.5267L62.2469 19.9734C62.0241 20.0706 61.6462 20.1871 61.1037 20.1871C60.0477 20.1871 59.418 19.4879 59.418 18.4487C59.418 17.4095 60.0283 16.5938 61.0262 16.5938C62.15 16.5938 62.4503 17.5844 62.4503 18.2156C62.4503 18.3419 62.4406 18.439 62.431 18.507H60.0089ZM61.8497 18.0505C61.8594 17.6523 61.685 17.0308 60.9874 17.0308C60.3577 17.0308 60.0768 17.6135 60.0283 18.0505H61.8497Z" fill="#171717"/>
<path d="M31.3416 23.7366C31.3416 23.3773 31.3319 23.0859 31.3125 22.8043H31.855L31.8841 23.3578H31.9035C32.0972 23.0276 32.4169 22.7266 32.9788 22.7266C33.4439 22.7266 33.8023 23.0082 33.9476 23.4161H33.9573C34.0639 23.2219 34.1995 23.0762 34.3449 22.9694C34.5483 22.814 34.7808 22.7266 35.1005 22.7266C35.5559 22.7266 36.234 23.0276 36.234 24.2222V26.2519H35.6237V24.2999C35.6237 23.6395 35.3815 23.2413 34.8777 23.2413C34.5192 23.2413 34.248 23.5035 34.1414 23.8143C34.1123 23.9017 34.093 24.0182 34.093 24.1251V26.2519H33.4826V24.1833C33.4826 23.6395 33.2404 23.2316 32.7657 23.2316C32.3782 23.2316 32.0875 23.5424 31.9907 23.8628C31.9519 23.96 31.9422 24.0668 31.9422 24.1736V26.2519H31.3319V23.7366H31.3416Z" fill="#171717"/>
<path d="M39.172 26.2538L39.1236 25.8168H39.1042C38.9104 26.0887 38.5423 26.3315 38.0482 26.3315C37.3506 26.3315 36.9922 25.8362 36.9922 25.3409C36.9922 24.5057 37.7285 24.0493 39.0557 24.059V23.991C39.0557 23.7094 38.9782 23.1946 38.271 23.1946C37.9513 23.1946 37.6219 23.2917 37.3797 23.4471L37.2344 23.0295C37.5153 22.845 37.9319 22.7188 38.3679 22.7188C39.4239 22.7188 39.6758 23.4374 39.6758 24.127V25.4186C39.6758 25.7197 39.6855 26.011 39.7339 26.2441H39.172V26.2538ZM39.0751 24.496C38.397 24.4863 37.6219 24.6028 37.6219 25.2729C37.6219 25.6808 37.8932 25.8751 38.2129 25.8751C38.6585 25.8751 38.9492 25.5934 39.0461 25.3021C39.0654 25.2341 39.0848 25.1661 39.0848 25.0981V24.496H39.0751Z" fill="#171717"/>
<path d="M40.6931 23.8823C40.6931 23.4744 40.6834 23.1247 40.6641 22.8043H41.2066L41.226 23.4841H41.255C41.41 23.0179 41.7879 22.7266 42.2045 22.7266C42.2723 22.7266 42.3207 22.7363 42.3788 22.746V23.3384C42.311 23.3287 42.2529 23.319 42.1657 23.319C41.7297 23.319 41.41 23.6492 41.3228 24.1251C41.3132 24.2125 41.2938 24.3096 41.2938 24.4164V26.2519H40.6931V23.8823Z" fill="#171717"/>
<path d="M43.663 24.3886C43.7502 24.272 43.8665 24.1167 43.973 24.0001L44.9806 22.8153H45.7362L44.409 24.2332L45.9203 26.263H45.1647L43.9827 24.612L43.663 24.9713V26.263H43.043V21.2031H43.663V24.3886Z" fill="#171717"/>
<path d="M46.716 24.6476C46.7257 25.4925 47.2682 25.8421 47.8979 25.8421C48.3436 25.8421 48.6148 25.7644 48.8473 25.6673L48.9539 26.1141C48.7311 26.2112 48.3532 26.3277 47.8107 26.3277C46.7547 26.3277 46.125 25.6285 46.125 24.5893C46.125 23.5502 46.7353 22.7344 47.7332 22.7344C48.857 22.7344 49.1574 23.725 49.1574 24.3562C49.1574 24.4825 49.1477 24.5796 49.138 24.6476H46.716ZM48.547 24.1911C48.5567 23.793 48.3823 23.1714 47.6848 23.1714C47.0551 23.1714 46.7741 23.7541 46.7257 24.1911H48.547Z" fill="#171717"/>
<path d="M50.6763 21.8125V22.8031H51.5676V23.279H50.6763V25.1339C50.6763 25.5612 50.7926 25.804 51.1413 25.804C51.306 25.804 51.4223 25.7846 51.4998 25.7652L51.5289 26.2314C51.4126 26.2799 51.2188 26.3188 50.9766 26.3188C50.686 26.3188 50.4535 26.2216 50.2985 26.0565C50.1241 25.872 50.0563 25.5612 50.0563 25.1631V23.279H49.5234V22.8031H50.0563V21.9776L50.6763 21.8125Z" fill="#171717"/>
<path d="M52.9743 21.842C52.984 22.0556 52.8289 22.2305 52.5771 22.2305C52.3542 22.2305 52.1992 22.0556 52.1992 21.842C52.1992 21.6186 52.3639 21.4535 52.5867 21.4535C52.8289 21.4438 52.9743 21.6186 52.9743 21.842ZM52.2767 26.2511V22.8034H52.9064V26.2511H52.2767Z" fill="#171717"/>
<path d="M53.9431 23.7366C53.9431 23.3773 53.9334 23.0859 53.9141 22.8043H54.4663L54.505 23.3773H54.5147C54.6891 23.0471 55.0863 22.7266 55.6482 22.7266C56.1229 22.7266 56.8592 23.0082 56.8592 24.193V26.2519H56.2295V24.261C56.2295 23.7075 56.0261 23.2413 55.4351 23.2413C55.0185 23.2413 54.6988 23.5326 54.5922 23.8823C54.5632 23.96 54.5535 24.0668 54.5535 24.1736V26.2422H53.9237V23.7366H53.9431Z" fill="#171717"/>
<path d="M60.8414 22.8024C60.8317 23.0549 60.8124 23.3268 60.8124 23.7541V25.7547C60.8124 26.5414 60.6574 27.027 60.3183 27.328C59.9889 27.6388 59.5045 27.7457 59.0685 27.7457C58.6519 27.7457 58.2063 27.6485 57.9253 27.464L58.0803 26.9881C58.3032 27.1338 58.6616 27.2601 59.0879 27.2601C59.7273 27.2601 60.1923 26.9299 60.1923 26.0558V25.6673H60.1826C59.9889 25.9878 59.6207 26.2403 59.0879 26.2403C58.2354 26.2403 57.625 25.5119 57.625 24.5602C57.625 23.3948 58.3807 22.7344 59.1751 22.7344C59.7757 22.7344 60.0955 23.0452 60.2505 23.3365H60.2601L60.2892 22.8121H60.8414V22.8024ZM60.202 24.162C60.202 24.0552 60.1923 23.9581 60.1633 23.8804C60.047 23.521 59.7467 23.22 59.2913 23.22C58.6907 23.22 58.2644 23.725 58.2644 24.5213C58.2644 25.2012 58.6035 25.7644 59.2817 25.7644C59.6692 25.7644 60.0179 25.5217 60.1439 25.1235C60.1826 25.0166 60.1923 24.9001 60.1923 24.7933V24.162H60.202Z" fill="#171717"/>
<path d="M65.2579 26.2538L65.2095 25.8168H65.1901C64.9964 26.0887 64.6282 26.3315 64.1341 26.3315C63.4366 26.3315 63.0781 25.8362 63.0781 25.3409C63.0781 24.5057 63.8144 24.0493 65.1417 24.059V23.991C65.1417 23.7094 65.0642 23.1946 64.3569 23.1946C64.0372 23.1946 63.7078 23.2917 63.4656 23.4471L63.3203 23.0295C63.6013 22.845 64.0179 22.7188 64.4538 22.7188C65.5098 22.7188 65.7617 23.4374 65.7617 24.127V25.4186C65.7617 25.7197 65.7714 26.011 65.8198 26.2441H65.2579V26.2538ZM65.1707 24.496C64.4926 24.4863 63.7175 24.6028 63.7175 25.2729C63.7175 25.6808 63.9888 25.8751 64.3085 25.8751C64.7542 25.8751 65.0448 25.5934 65.1417 25.3021C65.1611 25.2341 65.1804 25.1661 65.1804 25.0981V24.496H65.1707Z" fill="#171717"/>
<path d="M69.7477 22.8024C69.738 23.0549 69.7186 23.3268 69.7186 23.7541V25.7547C69.7186 26.5414 69.5636 27.027 69.2245 27.328C68.8951 27.6388 68.4107 27.7457 67.9748 27.7457C67.5582 27.7457 67.1125 27.6485 66.8316 27.464L66.9866 26.9881C67.2094 27.1338 67.5679 27.2601 67.9941 27.2601C68.6336 27.2601 69.0986 26.9299 69.0986 26.0558V25.6673H69.0889C68.8951 25.9878 68.527 26.2403 67.9941 26.2403C67.1416 26.2403 66.5312 25.5119 66.5312 24.5602C66.5312 23.3948 67.2869 22.7344 68.0813 22.7344C68.682 22.7344 69.0017 23.0452 69.1567 23.3365H69.1664L69.1955 22.8121H69.7477V22.8024ZM69.0986 24.162C69.0986 24.0552 69.0889 23.9581 69.0598 23.8804C68.9436 23.521 68.6432 23.22 68.1879 23.22C67.5872 23.22 67.161 23.725 67.161 24.5213C67.161 25.2012 67.5001 25.7644 68.1782 25.7644C68.5657 25.7644 68.9145 25.5217 69.0405 25.1235C69.0792 25.0166 69.0889 24.9001 69.0889 24.7933V24.162H69.0986Z" fill="#171717"/>
<path d="M71.1007 24.6476C71.1103 25.4925 71.6529 25.8421 72.2826 25.8421C72.7282 25.8421 72.9995 25.7644 73.232 25.6673L73.3386 26.1141C73.1158 26.2112 72.7379 26.3277 72.1954 26.3277C71.1394 26.3277 70.5 25.6285 70.5 24.5893C70.5 23.5502 71.1103 22.7344 72.1082 22.7344C73.232 22.7344 73.5324 23.725 73.5324 24.3562C73.5324 24.4825 73.5227 24.5796 73.513 24.6476H71.1007ZM72.9317 24.1911C72.9414 23.793 72.767 23.1714 72.0695 23.1714C71.4397 23.1714 71.1588 23.7541 71.1103 24.1911H72.9317Z" fill="#171717"/>
<path d="M74.3103 23.7366C74.3103 23.3773 74.3006 23.0859 74.2812 22.8043H74.8335L74.8722 23.3773H74.8819C75.0563 23.0471 75.4535 22.7266 76.0154 22.7266C76.4901 22.7266 77.2264 23.0082 77.2264 24.193V26.2519H76.5967V24.261C76.5967 23.7075 76.3932 23.2413 75.8023 23.2413C75.3857 23.2413 75.066 23.5326 74.9594 23.8823C74.9303 23.96 74.9207 24.0668 74.9207 24.1736V26.2422H74.3103V23.7366Z" fill="#171717"/>
<path d="M80.703 26.1297C80.5383 26.2171 80.1798 26.3336 79.7148 26.3336C78.6782 26.3336 78 25.6247 78 24.5758C78 23.5172 78.7266 22.75 79.8504 22.75C80.2186 22.75 80.548 22.8471 80.7127 22.9248L80.5673 23.4104C80.422 23.323 80.1798 23.2453 79.8407 23.2453C79.056 23.2453 78.6297 23.828 78.6297 24.5467C78.6297 25.343 79.1432 25.8383 79.8214 25.8383C80.1798 25.8383 80.4123 25.7412 80.5867 25.6635L80.703 26.1297Z" fill="#171717"/>
<path d="M81.7894 22.8047L82.5451 24.8442C82.6226 25.0675 82.7098 25.3395 82.7679 25.5531H82.7776C82.8454 25.3492 82.9132 25.087 83.0004 24.8344L83.6786 22.8144H84.3374L83.3976 25.2715C82.952 26.4563 82.642 27.0584 82.2157 27.4275C81.9057 27.6994 81.6053 27.8063 81.4503 27.8354L81.2953 27.311C81.4503 27.2624 81.6538 27.1653 81.8379 27.0002C82.0122 26.8642 82.2254 26.6214 82.361 26.3009C82.3901 26.2329 82.4094 26.1844 82.4094 26.1553C82.4094 26.1164 82.3998 26.0678 82.3707 25.9902L81.1016 22.8144H81.7894V22.8047Z" fill="#171717"/>
</g>
<defs>
<linearGradient id="paint0_linear_16551_8685" x1="27.5322" y1="20.7325" x2="3.25171" y2="10.4512" gradientUnits="userSpaceOnUse">
<stop stop-color="#192475"/>
<stop offset="0.1745" stop-color="#1B2878"/>
<stop offset="0.3391" stop-color="#203382"/>
<stop offset="0.4998" stop-color="#284693"/>
<stop offset="0.658" stop-color="#3461AB"/>
<stop offset="0.8145" stop-color="#4384CA"/>
<stop offset="0.9677" stop-color="#56ADEF"/>
<stop offset="1" stop-color="#5AB7F8"/>
</linearGradient>
<linearGradient id="paint1_linear_16551_8685" x1="15.0965" y1="6.81428" x2="22.9085" y2="24.3175" gradientUnits="userSpaceOnUse">
<stop stop-color="#030EA1"/>
<stop offset="0.1038" stop-color="#0715A3"/>
<stop offset="0.2492" stop-color="#1327AA"/>
<stop offset="0.4192" stop-color="#2745B4"/>
<stop offset="0.6079" stop-color="#436EC3"/>
<stop offset="0.8093" stop-color="#65A3D6"/>
<stop offset="1" stop-color="#8BDCEA"/>
</linearGradient>
</defs>
</svg>
