<svg width="120" height="48" viewBox="0 0 120 48" fill="none" xmlns="http://www.w3.org/2000/svg">
<g clip-path="url(#clip0_16611_8643)">
<path d="M9.21216 7.94939V0.195312H10.2641L14.3368 6.29318V0.195312H15.3136V7.94939H14.2616L10.189 1.85152V7.94939H9.21216Z" fill="#191919"/>
<path d="M17.0569 7.94939V0.195312H22.6624V1.11376H18.0938V3.49268H22.3769V4.39607H18.0938V7.03095H22.8427V7.94939H17.0569Z" fill="#191919"/>
<path d="M25.6079 7.94939L23.5491 0.195312H24.601L25.7732 5.2844C25.8935 5.81137 26.0137 6.35341 26.1039 6.86533C26.2992 6.03722 26.4195 5.55541 26.4495 5.43496L27.9223 0.195312H29.1546L30.2667 4.12505C30.5522 5.10372 30.7476 6.02216 30.8678 6.86533C30.973 6.36846 31.0932 5.81137 31.2585 5.179L32.4758 0.195312H33.5128L31.3938 7.94939H30.4019L28.7638 2.0322C28.6286 1.53534 28.5384 1.23421 28.5234 1.12881C28.4483 1.49017 28.3731 1.7913 28.298 2.0322L26.6599 7.94939H25.6079Z" fill="#191919"/>
<path d="M71.7295 43.7546V42.7307H75.4264V45.9679C74.8554 46.4195 74.2693 46.7659 73.6681 46.9917C73.067 47.2175 72.4509 47.338 71.8197 47.338C71.1885 47.338 70.1816 47.1573 69.4903 46.7809C68.784 46.4196 68.258 45.8775 67.9124 45.1849C67.5517 44.4923 67.3713 43.7094 67.3713 42.8512C67.3713 41.993 67.5517 41.21 67.8973 40.4722C68.258 39.7345 68.769 39.1924 69.4302 38.8311C70.0914 38.4697 70.8579 38.2891 71.7295 38.2891C72.6011 38.2891 72.9318 38.3945 73.4427 38.5902C73.9537 38.801 74.3444 39.072 74.645 39.4484C74.9305 39.8098 75.1559 40.2916 75.3062 40.8788L74.2693 41.1648C74.134 40.7132 73.9687 40.3669 73.7884 40.1109C73.593 39.8549 73.3225 39.6592 72.9618 39.4936C72.6011 39.343 72.1954 39.2677 71.7596 39.2677C71.3238 39.2677 70.7827 39.343 70.392 39.5086C70.0013 39.6743 69.7007 39.885 69.4603 40.141C69.2198 40.397 69.0395 40.6981 68.9042 40.9992C68.6788 41.5413 68.5736 42.1285 68.5736 42.7608C68.5736 43.3932 68.7088 44.1912 68.9794 44.7182C69.2499 45.2451 69.6406 45.6366 70.1516 45.8926C70.6625 46.1485 71.2035 46.269 71.7746 46.269C72.3457 46.269 72.7665 46.1786 73.2323 45.9829C73.6982 45.7872 74.0739 45.5914 74.3144 45.3656V43.7395H71.7596L71.7295 43.7546Z" fill="#191919"/>
<path d="M77.1395 47.1702V38.4375H81.0018C81.7832 38.4375 82.3693 38.5128 82.7751 38.6784C83.1809 38.844 83.4965 39.115 83.7369 39.5065C83.9774 39.898 84.0976 40.3497 84.0976 40.8164C84.0976 41.2832 83.9022 41.9607 83.4965 42.3823C83.0907 42.8039 82.4745 43.0749 81.648 43.1953C81.9486 43.3459 82.189 43.4814 82.3393 43.632C82.6699 43.9482 83.0005 44.3246 83.3011 44.7913L84.8189 47.1702H83.3612L82.204 45.3484C81.8734 44.8214 81.5879 44.43 81.3775 44.1439C81.1521 43.8729 80.9717 43.6771 80.7914 43.5567C80.6261 43.4513 80.4457 43.361 80.2654 43.3308C80.1301 43.3007 79.9197 43.2857 79.6192 43.2857H78.2817V47.1552H77.1245L77.1395 47.1702ZM78.2817 42.292H80.7613C81.2873 42.292 81.6931 42.2317 81.9936 42.1263C82.2942 42.0209 82.5196 41.8403 82.6699 41.5994C82.8202 41.3585 82.8953 41.1025 82.8953 40.8164C82.8953 40.4099 82.745 40.0636 82.4445 39.7926C82.1439 39.5216 81.678 39.3861 81.0318 39.3861H78.2666V42.2769L78.2817 42.292Z" fill="#191919"/>
<path d="M85.5554 42.9265C85.5554 41.481 85.9462 40.3367 86.7276 39.5237C87.5091 38.7106 88.5009 38.2891 89.7333 38.2891C90.9656 38.2891 91.2661 38.4848 91.9123 38.8612C92.5585 39.2527 93.0545 39.7796 93.3851 40.4722C93.7308 41.1648 93.8961 41.9478 93.8961 42.8211C93.8961 43.6943 93.7157 44.4923 93.355 45.2C92.9944 45.9076 92.4984 46.4346 91.8372 46.7809C91.176 47.1423 90.4847 47.3229 89.7182 47.3229C88.9518 47.3229 88.1703 47.1272 87.5241 46.7207C86.8779 46.3292 86.382 45.7872 86.0513 45.0946C85.7207 44.402 85.5554 43.6793 85.5554 42.9114V42.9265ZM86.7426 42.9415C86.7426 43.9955 87.0282 44.8236 87.5842 45.4258C88.1553 46.0281 88.8616 46.3292 89.7032 46.3292C90.5448 46.3292 91.2812 46.0281 91.8522 45.4108C92.4083 44.7935 92.6938 43.9352 92.6938 42.806C92.6938 41.6768 92.5736 41.481 92.3331 40.939C92.0927 40.412 91.747 40.0055 91.2812 39.7044C90.8153 39.4183 90.3043 39.2677 89.7333 39.2677C88.9217 39.2677 88.2154 39.5538 87.6293 40.1109C87.0432 40.668 86.7426 41.6165 86.7426 42.9265V42.9415Z" fill="#191919"/>
<path d="M101.094 38.4375H102.252V43.4814C102.252 44.3547 102.146 45.0623 101.951 45.5743C101.756 46.0862 101.395 46.5078 100.884 46.839C100.373 47.1552 99.6818 47.3208 98.8553 47.3208C98.0287 47.3208 97.3675 47.1853 96.8565 46.8992C96.3456 46.6132 95.9699 46.2066 95.7444 45.6797C95.519 45.1527 95.4138 44.4149 95.4138 43.4965V38.4526H96.571V43.4965C96.571 44.2493 96.6461 44.8064 96.7814 45.1677C96.9166 45.5291 97.1571 45.8001 97.5027 45.9958C97.8484 46.1916 98.2692 46.2819 98.7651 46.2819C99.6067 46.2819 100.223 46.0862 100.584 45.7098C100.944 45.3183 101.125 44.5805 101.125 43.4814V38.4375H101.094Z" fill="#191919"/>
<path d="M104.16 47.1702V38.4375H107.452C108.023 38.4375 108.473 38.4676 108.774 38.5278C109.195 38.6031 109.556 38.7386 109.856 38.9344C110.142 39.1301 110.382 39.4162 110.547 39.7775C110.728 40.1389 110.818 40.5303 110.818 40.967C110.818 41.7048 110.577 42.3371 110.112 42.849C109.646 43.361 108.789 43.6169 107.557 43.6169H105.318V47.1702H104.16ZM105.318 42.5931H107.572C108.323 42.5931 108.849 42.4576 109.165 42.1715C109.48 41.9005 109.631 41.509 109.631 40.9971C109.631 40.4852 109.54 40.3196 109.36 40.0636C109.18 39.8076 108.939 39.627 108.639 39.5517C108.443 39.5065 108.083 39.4764 107.557 39.4764H105.333V42.5931H105.318Z" fill="#191919"/>
<path d="M67.3113 13.3672L60.2781 28.2279L53.26 13.3672H50.1792L58.7453 31.4801L59.0007 32.0221L59.3915 32.8352H61.1798L70.3771 13.3672H67.3113Z" fill="#191919"/>
<path d="M47.2186 13.4141H26.2393V15.8382H47.2186V13.4141Z" fill="#191919"/>
<path d="M120 41.6016H114.635V43.6944H120V41.6016Z" fill="#191919"/>
<path d="M35.677 3.05469V5.14754H117.911V43.677H120V5.14754V4.09358V3.05469H35.677Z" fill="#191919"/>
<path d="M2.08892 41.6143V5.14754H6.73262V3.05469H0V4.09358V5.14754V41.6143V43.677H2.08892H64.3206V41.6143H2.08892Z" fill="#191919"/>
<path d="M47.2186 21.8281H26.2393V24.2522H47.2186V21.8281Z" fill="#191919"/>
<path d="M47.2186 30.4141H26.2393V32.8382H47.2186V30.4141Z" fill="#191919"/>
<path d="M94.5272 13.4141H73.5479V15.8382H94.5272V13.4141Z" fill="#191919"/>
<path d="M94.5272 21.8281H73.5479V24.2522H94.5272V21.8281Z" fill="#191919"/>
<path d="M94.5272 30.4141H73.5479V32.8382H94.5272V30.4141Z" fill="#191919"/>
<path d="M11.9774 30.4111V13.3672H9.12207V30.4111V32.6244V32.8352H22.8127V30.4111H11.9774Z" fill="#191919"/>
<path d="M101.079 30.4128V13.4141H98.2241V30.4128V32.6111V32.8369H111.915V30.4128H101.079Z" fill="#191919"/>
</g>
<defs>
<clipPath id="clip0_16611_8643">
<rect width="120" height="48" fill="white"/>
</clipPath>
</defs>
</svg>
