<svg width="88" height="35" viewBox="0 0 88 35" fill="none" xmlns="http://www.w3.org/2000/svg">
<g clip-path="url(#clip0_16535_9096)">
<path d="M6.75586 5.79464V0.140625H7.52731L10.5139 4.58699V0.140625H11.2302V5.79464H10.4588L7.4722 1.34828V5.79464H6.75586Z" fill="#191919"/>
<path d="M12.5088 5.79464V0.140625H16.6195V0.810324H13.2692V2.54495H16.4101V3.20367H13.2692V5.12494H16.7517V5.79464H12.5088Z" fill="#191919"/>
<path d="M18.7794 5.79464L17.2695 0.140625H18.041L18.9006 3.85142C18.9888 4.23567 19.0769 4.6309 19.143 5.00418C19.2863 4.40035 19.3745 4.04903 19.3965 3.9612L20.4765 0.140625H21.3802L22.1958 3.00606C22.4052 3.71967 22.5484 4.38937 22.6366 5.00418C22.7137 4.64188 22.8019 4.23567 22.9231 3.77456L23.8158 0.140625H24.5762L23.0223 5.79464H22.295L21.0937 1.48002C20.9945 1.11773 20.9284 0.898153 20.9174 0.821302C20.8623 1.08479 20.8072 1.30436 20.7521 1.48002L19.5508 5.79464H18.7794Z" fill="#191919"/>
<path d="M52.6018 31.8993V31.1528H55.3128V33.5132C54.8941 33.8425 54.4642 34.0951 54.0234 34.2597C53.5826 34.4244 53.1307 34.5122 52.6679 34.5122C52.205 34.5122 51.4666 34.3805 50.9597 34.106C50.4417 33.8425 50.056 33.4473 49.8025 32.9423C49.538 32.4373 49.4058 31.8664 49.4058 31.2406C49.4058 30.6148 49.538 30.0439 49.7915 29.506C50.056 28.968 50.4307 28.5728 50.9156 28.3093C51.4005 28.0458 51.9626 27.9141 52.6018 27.9141C53.241 27.9141 53.4834 27.9909 53.8581 28.1336C54.2328 28.2873 54.5194 28.485 54.7398 28.7594C54.9492 29.0229 55.1145 29.3742 55.2247 29.8024L54.4642 30.011C54.3651 29.6816 54.2438 29.4291 54.1116 29.2425C53.9683 29.0558 53.7699 28.9131 53.5054 28.7924C53.241 28.6826 52.9434 28.6277 52.6238 28.6277C52.3042 28.6277 51.9075 28.6826 51.6209 28.8033C51.3344 28.9241 51.114 29.0778 50.9376 29.2644C50.7613 29.4511 50.6291 29.6706 50.5299 29.8902C50.3646 30.2855 50.2874 30.7136 50.2874 31.1747C50.2874 31.6358 50.3866 32.2177 50.585 32.602C50.7833 32.9862 51.0699 33.2717 51.4446 33.4583C51.8193 33.6449 52.216 33.7328 52.6348 33.7328C53.0536 33.7328 53.3622 33.6669 53.7038 33.5242C54.0455 33.3814 54.321 33.2387 54.4973 33.074V31.8883H52.6238L52.6018 31.8993Z" fill="#191919"/>
<path d="M56.5691 34.3911V28.0234H59.4014C59.9745 28.0234 60.4043 28.0783 60.7019 28.1991C60.9994 28.3199 61.2309 28.5175 61.4072 28.8029C61.5835 29.0884 61.6717 29.4177 61.6717 29.7581C61.6717 30.0984 61.5284 30.5924 61.2309 30.8998C60.9333 31.2073 60.4815 31.4049 59.8753 31.4927C60.0957 31.6025 60.2721 31.7013 60.3823 31.8111C60.6247 32.0416 60.8672 32.3161 61.0876 32.6564L62.2007 34.3911H61.1317L60.2831 33.0626C60.0406 32.6784 59.8312 32.3929 59.677 32.1844C59.5116 31.9867 59.3794 31.844 59.2471 31.7562C59.1259 31.6793 58.9937 31.6135 58.8614 31.5915C58.7622 31.5695 58.6079 31.5586 58.3875 31.5586H57.4067V34.3801H56.5581L56.5691 34.3911ZM57.4067 30.834H59.2251C59.6108 30.834 59.9084 30.7901 60.1288 30.7132C60.3492 30.6364 60.5145 30.5046 60.6247 30.329C60.7349 30.1533 60.79 29.9667 60.79 29.7581C60.79 29.4616 60.6798 29.2091 60.4594 29.0115C60.239 28.8139 59.8974 28.7151 59.4235 28.7151H57.3957V30.823L57.4067 30.834Z" fill="#191919"/>
<path d="M62.7407 31.2955C62.7407 30.2415 63.0273 29.4072 63.6003 28.8143C64.1734 28.2215 64.9008 27.9141 65.8045 27.9141C66.7082 27.9141 66.9286 28.0568 67.4025 28.3313C67.8763 28.6167 68.24 29.0009 68.4825 29.506C68.736 30.011 68.8572 30.5819 68.8572 31.2186C68.8572 31.8554 68.7249 32.4373 68.4604 32.9533C68.196 33.4693 67.8323 33.8535 67.3474 34.106C66.8624 34.3695 66.3555 34.5013 65.7934 34.5013C65.2314 34.5013 64.6583 34.3585 64.1844 34.0621C63.7105 33.7767 63.3469 33.3814 63.1044 32.8764C62.8619 32.3714 62.7407 31.8444 62.7407 31.2845V31.2955ZM63.6114 31.3065C63.6114 32.075 63.8207 32.6788 64.2285 33.118C64.6473 33.5571 65.1653 33.7767 65.7824 33.7767C66.3996 33.7767 66.9396 33.5571 67.3584 33.107C67.7661 32.6568 67.9755 32.0311 67.9755 31.2077C67.9755 30.3843 67.8874 30.2415 67.711 29.8463C67.5347 29.4621 67.2812 29.1656 66.9396 28.9461C66.598 28.7375 66.2233 28.6277 65.8045 28.6277C65.2093 28.6277 64.6914 28.8363 64.2616 29.2425C63.8318 29.6487 63.6114 30.3403 63.6114 31.2955V31.3065Z" fill="#191919"/>
<path d="M74.136 28.0234H74.9846V31.7013C74.9846 32.3381 74.9075 32.8541 74.7642 33.2273C74.6209 33.6006 74.3564 33.908 73.9817 34.1495C73.607 34.3801 73.1001 34.5009 72.4939 34.5009C71.8878 34.5009 71.4029 34.402 71.0282 34.1934C70.6535 33.9849 70.378 33.6884 70.2127 33.3042C70.0474 32.9199 69.9702 32.382 69.9702 31.7123V28.0344H70.8188V31.7123C70.8188 32.2612 70.8739 32.6674 70.9731 32.9309C71.0723 33.1944 71.2486 33.392 71.5021 33.5347C71.7556 33.6775 72.0641 33.7433 72.4278 33.7433C73.045 33.7433 73.4968 33.6006 73.7613 33.3261C74.0258 33.0407 74.1581 32.5027 74.1581 31.7013V28.0234H74.136Z" fill="#191919"/>
<path d="M76.3843 34.3911V28.0234H78.7978C79.2166 28.0234 79.5472 28.0454 79.7676 28.0893C80.0762 28.1442 80.3407 28.243 80.5611 28.3857C80.7705 28.5285 80.9468 28.7371 81.0681 29.0005C81.2003 29.264 81.2664 29.5495 81.2664 29.8679C81.2664 30.4058 81.0901 30.8669 80.7485 31.2402C80.4068 31.6135 79.7786 31.8001 78.875 31.8001H77.2329V34.3911H76.3843ZM77.2329 31.0535H78.886C79.437 31.0535 79.8227 30.9547 80.0542 30.7461C80.2856 30.5485 80.3958 30.2631 80.3958 29.8898C80.3958 29.5165 80.3297 29.3958 80.1974 29.2091C80.0652 29.0225 79.8889 28.8908 79.6684 28.8359C79.5252 28.8029 79.2607 28.781 78.875 28.781H77.2439V31.0535H77.2329Z" fill="#191919"/>
<path d="M49.3614 9.75L44.2037 20.5859L39.0571 9.75H36.7979L43.0796 22.9573L43.267 23.3526L43.5535 23.9454H44.865L51.6096 9.75H49.3614Z" fill="#191919"/>
<path d="M34.627 9.78125H19.2422V11.5488H34.627V9.78125Z" fill="#191919"/>
<path d="M87.9998 30.3281H84.0654V31.8542H87.9998V30.3281Z" fill="#191919"/>
<path d="M26.1631 2.22656V3.7526H86.4681V31.847H88V3.7526V2.98409V2.22656H26.1631Z" fill="#191919"/>
<path d="M1.53187 30.3429V3.7526H4.93726V2.22656H0V2.98409V3.7526V30.3429V31.847H1.53187H47.1684V30.3429H1.53187Z" fill="#191919"/>
<path d="M34.627 15.9141H19.2422V17.6816H34.627V15.9141Z" fill="#191919"/>
<path d="M34.627 22.1719H19.2422V23.9394H34.627V22.1719Z" fill="#191919"/>
<path d="M69.3199 9.78125H53.9351V11.5488H69.3199V9.78125Z" fill="#191919"/>
<path d="M69.3199 15.9141H53.9351V17.6816H69.3199V15.9141Z" fill="#191919"/>
<path d="M69.3199 22.1719H53.9351V23.9394H69.3199V22.1719Z" fill="#191919"/>
<path d="M8.78338 22.1779V9.75H6.68945V22.1779V23.7917V23.9454H16.7293V22.1779H8.78338Z" fill="#191919"/>
<path d="M74.1252 22.1762V9.78125H72.0312V22.1762V23.7791V23.9437H82.0711V22.1762H74.1252Z" fill="#191919"/>
</g>
<defs>
<clipPath id="clip0_16535_9096">
<rect width="88" height="35" fill="white"/>
</clipPath>
</defs>
</svg>
